<svg xmlns="http://www.w3.org/2000/svg" width="1600" height="980" viewBox="0 0 1600 980" role="img" aria-label="찬미 브랜드 히어로 비주얼">
  <defs>
    <linearGradient id="heroBg" x1="0" x2="1" y1="0" y2="1">
      <stop offset="0" stop-color="#fffafd"/>
      <stop offset=".36" stop-color="#ffe1ef"/>
      <stop offset=".72" stop-color="#ff4f93"/>
      <stop offset="1" stop-color="#1b1318"/>
    </linearGradient>
    <linearGradient id="panel" x1="0" x2="1">
      <stop offset="0" stop-color="#1b1318"/>
      <stop offset="1" stop-color="#3b1730"/>
    </linearGradient>
  </defs>
  <rect width="1600" height="980" fill="url(#heroBg)"/>
  <path d="M105 95h1390v790H105z" fill="#fffafd" opacity=".54"/>
  <path d="M210 170h620v640H210z" fill="url(#panel)"/>
  <path d="M890 170h500v292H890zM890 518h500v292H890z" fill="#1b1318"/>
  <path d="M260 232h190v18H260zM260 286h430v12H260zM260 316h346v12H260z" fill="#fffafd"/>
  <path d="M260 615h206v64H260z" fill="#ff4f93"/>
  <path d="M932 218h142v142H932zM1105 218h142v142h-142zM1278 218h70v142h-70z" fill="#fffafd" opacity=".9"/>
  <path d="M944 548h148v36H944zM944 620h348v12H944zM944 650h268v12H944z" fill="#fffafd"/>
  <path d="M1220 520l42 95 104 10-78 70 24 102-92-52-92 52 24-102-78-70 104-10z" fill="#ffd166"/>
  <text x="250" y="480" font-family="Arial, sans-serif" font-size="132" font-weight="900" fill="#fffafd">CHANMI</text>
  <text x="260" y="658" font-family="Arial, sans-serif" font-size="34" font-weight="800" fill="#1b1318">LIVE · NYAM · DAILY</text>
</svg>

